<svg width="309" height="441" xmlns="http://www.w3.org/2000/svg"><g fill="none" fill-rule="evenodd"><path fill="#E5512F" d="M44.276 324.789l6.858 4.12L7.7 401.196l-6.858-4.12zm243.543 16.061l7.063-3.755 13.301 25.016-7.063 3.756z"/><path fill="#F8FCFB" d="M209-28.529l8.988-.47 3.036 57.92-8.988.47z"/><path fill="#66C4A0" d="M182.35 117.7l11.152-6.7 55.624 92.574-11.151 6.7zm-81.177 232.837l8.301-7.216 78.071 89.81-8.301 7.217z"/><path fill="#DE4E2D" d="M147.362 164l8.7 2.33-15.011 56.024-8.7-2.33z"/><path fill="#F8FCFB" d="M260.073 367l9.889 1.566-9.073 57.286-9.889-1.566zm-146.71-247l7.787 7.786-41.013 41.012-7.786-7.786zm44.042 270.653l6.49 2.622-15.358 38.015-6.49-2.623z"/></g></svg>