<?xml version="1.0" encoding="UTF-8"?>
<svg width="1306px" height="803px" viewBox="0 0 1306 803" version="1.1" xmlns="http://www.w3.org/2000/svg" xmlns:xlink="http://www.w3.org/1999/xlink">
    <!-- Generator: Sketch 43.2 (39069) - http://www.bohemiancoding.com/sketch -->
    <title>Group 2</title>
    <desc>Created with Sketch.</desc>
    <defs></defs>
    <g id="Page-1" stroke="none" stroke-width="1" fill="none" fill-rule="evenodd">
        <g id="website-1400" transform="translate(-94.000000, 0.000000)">
            <g id="Group-2" transform="translate(94.000000, -6.000000)">
                <rect id="Rectangle" fill="#E5512F" transform="translate(273.447863, 559.531579) rotate(31.000000) translate(-273.447863, -559.531579) " x="257.447863" y="344.531579" width="32" height="430"></rect>
                <rect id="Rectangle" fill="#E5512F" transform="translate(947.465323, 688.803258) rotate(-15.000000) translate(-947.465323, -688.803258) " x="939.689255" y="573.069047" width="15.5521371" height="231.468421"></rect>
                <rect id="Rectangle" fill="#66C4A0" transform="translate(1249.356406, 336.195462) rotate(-30.000000) translate(-1249.356406, -336.195462) " x="1233.35641" y="121.195462" width="32" height="430"></rect>
                <rect id="Rectangle" fill="#66C4A0" x="593" y="545" width="16" height="186"></rect>
                <rect id="Rectangle-Copy" fill="#66C4A0" x="33" y="623" width="16" height="186"></rect>
                <rect id="Rectangle" fill="#66C4A0" transform="translate(418.303301, 263.081475) rotate(-45.000000) translate(-418.303301, -263.081475) " x="411.803301" y="209.081475" width="13" height="108"></rect>
                <rect id="Rectangle" fill="#66C4A0" transform="translate(570.637042, 173.492365) rotate(31.000000) translate(-570.637042, -173.492365) " x="566.637042" y="119.492365" width="8" height="108"></rect>
                <rect id="Rectangle" fill="#F8FCFB" transform="translate(602.525126, 684.474874) rotate(-45.000000) translate(-602.525126, -684.474874) " x="598.025126" y="655.474874" width="9" height="58"></rect>
                <rect id="Rectangle" fill="#F8FCFB" transform="translate(714.011576, 29.195768) rotate(-3.000000) translate(-714.011576, -29.195768) " x="709.511576" y="0.195768311" width="9" height="58"></rect>
                <rect id="Rectangle" fill="#DE4E2D" transform="translate(833.688077, 238.688077) rotate(-45.000000) translate(-833.688077, -238.688077) " x="829.188077" y="209.688077" width="9" height="58"></rect>
                <rect id="Rectangle" fill="#F8FCFB" transform="translate(1158.162951, 670.162951) rotate(9.000000) translate(-1158.162951, -670.162951) " x="1150.16295" y="641.162951" width="16" height="58"></rect>
                <rect id="Rectangle" fill="#F8FCFB" transform="translate(26.162951, 183.162951) rotate(-315.000000) translate(-26.162951, -183.162951) " x="18.1629509" y="154.162951" width="16" height="58"></rect>
                <rect id="Rectangle" fill="#F8FCFB" transform="translate(804.778816, 555.579586) rotate(-20.000000) translate(-804.778816, -555.579586) " x="800.733016" y="511.789747" width="8.09160079" height="87.5796791"></rect>
                <rect id="Rectangle" fill="#F8FCFB" transform="translate(451.453240, 580.358892) rotate(-20.000000) translate(-451.453240, -580.358892) " x="442.95324" y="488.358892" width="17" height="184"></rect>
            </g>
        </g>
    </g>
</svg>