<?xml version="1.0" encoding="UTF-8"?>
<svg width="309px" height="441px" viewBox="0 0 309 441" version="1.1" xmlns="http://www.w3.org/2000/svg" xmlns:xlink="http://www.w3.org/1999/xlink">
    <!-- Generator: Sketch 43.2 (39069) - http://www.bohemiancoding.com/sketch -->
    <title>Group 2</title>
    <desc>Created with Sketch.</desc>
    <defs></defs>
    <g id="Page-1" stroke="none" stroke-width="1" fill="none" fill-rule="evenodd">
        <g id="website-380" transform="translate(-30.000000, 0.000000)">
            <g id="Group-2" transform="translate(30.000000, -29.000000)">
                <rect id="Rectangle" fill="#E5512F" transform="translate(25.987924, 391.991955) rotate(31.000000) translate(-25.987924, -391.991955) " x="21.9879244" y="349.825902" width="8" height="84.3321069"></rect>
                <rect id="Rectangle" fill="#E5512F" transform="translate(298.000588, 380.480982) rotate(-28.000000) translate(-298.000588, -380.480982) " x="294.000588" y="366.314928" width="8" height="28.3321069"></rect>
                <rect id="Rectangle" fill="#F8FCFB" transform="translate(215.011576, 29.195768) rotate(-3.000000) translate(-215.011576, -29.195768) " x="210.511576" y="0.195768311" width="9" height="58"></rect>
                <rect id="Rectangle" fill="#66C4A0" transform="translate(215.738485, 189.637224) rotate(-31.000000) translate(-215.738485, -189.637224) " x="209.233744" y="135.637224" width="13.0094821" height="108"></rect>
                <rect id="Rectangle" fill="#66C4A0" transform="translate(144.359186, 420.834164) rotate(-41.000000) translate(-144.359186, -420.834164) " x="138.859186" y="361.334164" width="11" height="119"></rect>
                <rect id="Rectangle" fill="#DE4E2D" transform="translate(144.206367, 222.177384) rotate(15.000000) translate(-144.206367, -222.177384) " x="139.703084" y="193.177384" width="9.00656455" height="58"></rect>
                <rect id="Rectangle" fill="#F8FCFB" transform="translate(260.480805, 425.426047) rotate(9.000000) translate(-260.480805, -425.426047) " x="255.474969" y="396.426047" width="10.0116703" height="58"></rect>
                <rect id="Rectangle" fill="#F8FCFB" transform="translate(96.750088, 173.399310) rotate(-315.000000) translate(-96.750088, -173.399310) " x="91.2442525" y="144.39931" width="11.0116703" height="58"></rect>
                <rect id="Rectangle" fill="#F8FCFB" transform="translate(152.970563, 439.970563) rotate(22.000000) translate(-152.970563, -439.970563) " x="149.470563" y="419.470563" width="7" height="41"></rect>
            </g>
        </g>
    </g>
</svg>