<svg width="1306" height="803" xmlns="http://www.w3.org/2000/svg"><g fill="none" fill-rule="evenodd"><path fill="#E5512F" d="M370.466 361l27.43 16.482-221.467 368.582L149 729.582zM910 573.025L925.022 569l59.908 223.581-15.022 4.025z"/><path fill="#66C4A0" d="M1128 152l27.712-16 215 372.39-27.713 16zM593 539h16v186h-16zM33 617h16v186H33zm342.523-393.506l9.192-9.193 76.368 76.368-9.193 9.192zM595.02 119.145l6.858 4.12-55.624 92.574-6.858-4.12z"/><path fill="#F8FCFB" d="M578.837 661.15l6.364-6.363 41.012 41.012-6.364 6.364zM708-5.529l8.988-.47 3.036 57.92-8.988.47z"/><path fill="#DE4E2D" d="M810 215.364l6.364-6.364 41.012 41.012-6.364 6.364z"/><path fill="#F8FCFB" d="M1154.798 634.269l15.803 2.503-9.073 57.285-15.803-2.503zM41.012 151l11.314 11.314-41.012 41.012L0 192.012zM786 509.815l7.604-2.768 29.954 82.298-7.604 2.768zm-374-19L427.975 485l62.931 172.904-15.974 5.814z"/></g></svg>